<svg xmlns="http://www.w3.org/2000/svg" xmlns:xlink="http://www.w3.org/1999/xlink" width="500" zoomAndPan="magnify" viewBox="0 0 375 374.999991" height="500" preserveAspectRatio="xMidYMid meet" version="1.0"><defs><g/><clipPath id="f22db0bdf1"><path d="M 58.363281 108.933594 L 187.792969 108.933594 L 187.792969 182 L 58.363281 182 Z M 58.363281 108.933594 " clip-rule="nonzero"/></clipPath><clipPath id="ef3fe44842"><path d="M 118.800781 118.433594 L 139.863281 118.433594 L 139.863281 139.496094 L 118.800781 139.496094 Z M 118.800781 118.433594 " clip-rule="nonzero"/></clipPath><clipPath id="e47454527e"><path d="M 129.332031 118.433594 C 123.515625 118.433594 118.800781 123.148438 118.800781 128.964844 C 118.800781 134.78125 123.515625 139.496094 129.332031 139.496094 C 135.148438 139.496094 139.863281 134.78125 139.863281 128.964844 C 139.863281 123.148438 135.148438 118.433594 129.332031 118.433594 " clip-rule="nonzero"/></clipPath><clipPath id="34ecebffef"><path d="M 90.304688 166.4375 L 111.367188 166.4375 L 111.367188 187.5 L 90.304688 187.5 Z M 90.304688 166.4375 " clip-rule="nonzero"/></clipPath><clipPath id="ebf0506b07"><path d="M 100.835938 166.4375 C 95.019531 166.4375 90.304688 171.152344 90.304688 176.96875 C 90.304688 182.785156 95.019531 187.5 100.835938 187.5 C 106.652344 187.5 111.367188 182.785156 111.367188 176.96875 C 111.367188 171.152344 106.652344 166.4375 100.835938 166.4375 " clip-rule="nonzero"/></clipPath><clipPath id="16aaddd7b0"><path d="M 147.296875 166.4375 L 168.363281 166.4375 L 168.363281 187.5 L 147.296875 187.5 Z M 147.296875 166.4375 " clip-rule="nonzero"/></clipPath><clipPath id="0767b68c67"><path d="M 157.828125 166.4375 C 152.011719 166.4375 147.296875 171.152344 147.296875 176.96875 C 147.296875 182.785156 152.011719 187.5 157.828125 187.5 C 163.644531 187.5 168.363281 182.785156 168.363281 176.96875 C 168.363281 171.152344 163.644531 166.4375 157.828125 166.4375 " clip-rule="nonzero"/></clipPath></defs><g clip-path="url(#f22db0bdf1)"><path fill="#00a1ff" d="M 145.582031 108.933594 L 159.605469 122.9375 L 129.878906 152.726562 L 101.835938 124.71875 L 58.503906 167.992188 L 72.527344 182 L 101.835938 152.726562 L 129.878906 180.738281 L 173.628906 136.945312 L 187.652344 150.949219 L 187.652344 108.933594 Z M 145.582031 108.933594 " fill-opacity="1" fill-rule="nonzero"/></g><g clip-path="url(#ef3fe44842)"><g clip-path="url(#e47454527e)"><path fill="#ffbd59" d="M 118.800781 118.433594 L 139.863281 118.433594 L 139.863281 139.496094 L 118.800781 139.496094 Z M 118.800781 118.433594 " fill-opacity="1" fill-rule="nonzero"/></g></g><g clip-path="url(#34ecebffef)"><g clip-path="url(#ebf0506b07)"><path fill="#7ed957" d="M 90.304688 166.4375 L 111.367188 166.4375 L 111.367188 187.5 L 90.304688 187.5 Z M 90.304688 166.4375 " fill-opacity="1" fill-rule="nonzero"/></g></g><g clip-path="url(#16aaddd7b0)"><g clip-path="url(#0767b68c67)"><path fill="#ff5757" d="M 147.296875 166.4375 L 168.363281 166.4375 L 168.363281 187.5 L 147.296875 187.5 Z M 147.296875 166.4375 " fill-opacity="1" fill-rule="nonzero"/></g></g><g fill="#545454" fill-opacity="1"><g transform="translate(155.435979, 179.13148)"><g><path d="M 25.328125 0 L 23.421875 -5.734375 L 11.1875 -5.734375 L 9.28125 0 L 0.4375 0 L 12.296875 -34.21875 L 22.40625 -34.21875 L 34.21875 0 Z M 13.265625 -12.0625 L 21.34375 -12.0625 L 17.3125 -24.203125 Z M 13.265625 -12.0625 "/></g></g></g><g fill="#545454" fill-opacity="1"><g transform="translate(189.016045, 179.13148)"><g><path d="M 11.953125 -13.265625 L 11.953125 0 L 3.640625 0 L 3.640625 -34.125 L 17.109375 -34.125 C 21.066406 -34.125 24.144531 -33.101562 26.34375 -31.0625 C 28.550781 -29.019531 29.65625 -26.554688 29.65625 -23.671875 C 29.65625 -21.691406 29.050781 -19.757812 27.84375 -17.875 C 26.644531 -16 24.6875 -14.675781 21.96875 -13.90625 L 30.328125 0 L 20.609375 0 L 12.9375 -13.265625 Z M 11.953125 -27.796875 L 11.953125 -19.59375 L 17.109375 -19.59375 C 18.367188 -19.59375 19.363281 -19.960938 20.09375 -20.703125 C 20.820312 -21.453125 21.1875 -22.429688 21.1875 -23.640625 C 21.1875 -24.859375 20.8125 -25.851562 20.0625 -26.625 C 19.320312 -27.40625 18.335938 -27.796875 17.109375 -27.796875 Z M 11.953125 -27.796875 "/></g></g></g><g fill="#545454" fill-opacity="1"><g transform="translate(220.409263, 179.13148)"><g><path d="M 1.3125 -27.796875 L 1.3125 -34.125 L 28.234375 -34.125 L 28.234375 -27.796875 L 18.90625 -27.796875 L 18.90625 0 L 10.59375 0 L 10.59375 -27.796875 Z M 1.3125 -27.796875 "/></g></g></g><g fill="#545454" fill-opacity="1"><g transform="translate(248.886692, 179.13148)"><g><path d="M 3.640625 0 L 3.640625 -34.125 L 11.953125 -34.125 L 11.953125 0 Z M 3.640625 0 "/></g></g></g><g fill="#545454" fill-opacity="1"><g transform="translate(263.416905, 179.13148)"><g><path d="M 25.859375 -34.21875 L 34.171875 -34.21875 L 34.171875 0 L 25.859375 0 L 11.953125 -21.53125 L 11.953125 0 L 3.640625 0 L 3.640625 -34.21875 L 11.953125 -34.21875 L 25.859375 -12.6875 Z M 25.859375 -34.21875 "/></g></g></g><g fill="#545454" fill-opacity="1"><g transform="translate(300.155746, 179.13148)"><g><path d="M 25.328125 0 L 23.421875 -5.734375 L 11.1875 -5.734375 L 9.28125 0 L 0.4375 0 L 12.296875 -34.21875 L 22.40625 -34.21875 L 34.21875 0 Z M 13.265625 -12.0625 L 21.34375 -12.0625 L 17.3125 -24.203125 Z M 13.265625 -12.0625 "/></g></g></g></svg>