<svg xmlns="http://www.w3.org/2000/svg" xmlns:xlink="http://www.w3.org/1999/xlink" width="500" zoomAndPan="magnify" viewBox="0 0 375 374.999991" height="500" preserveAspectRatio="xMidYMid meet" version="1.0"><defs><g/><clipPath id="e2d3787c09"><path d="M 58.363281 108.933594 L 187.792969 108.933594 L 187.792969 182 L 58.363281 182 Z M 58.363281 108.933594 " clip-rule="nonzero"/></clipPath><clipPath id="fabb61ae4d"><path d="M 118.800781 118.433594 L 139.863281 118.433594 L 139.863281 139.496094 L 118.800781 139.496094 Z M 118.800781 118.433594 " clip-rule="nonzero"/></clipPath><clipPath id="79676f8a63"><path d="M 129.332031 118.433594 C 123.515625 118.433594 118.800781 123.148438 118.800781 128.964844 C 118.800781 134.78125 123.515625 139.496094 129.332031 139.496094 C 135.148438 139.496094 139.863281 134.78125 139.863281 128.964844 C 139.863281 123.148438 135.148438 118.433594 129.332031 118.433594 " clip-rule="nonzero"/></clipPath><clipPath id="90d7128b88"><path d="M 90.304688 166.4375 L 111.367188 166.4375 L 111.367188 187.5 L 90.304688 187.5 Z M 90.304688 166.4375 " clip-rule="nonzero"/></clipPath><clipPath id="295c5ba760"><path d="M 100.835938 166.4375 C 95.019531 166.4375 90.304688 171.152344 90.304688 176.96875 C 90.304688 182.785156 95.019531 187.5 100.835938 187.5 C 106.652344 187.5 111.367188 182.785156 111.367188 176.96875 C 111.367188 171.152344 106.652344 166.4375 100.835938 166.4375 " clip-rule="nonzero"/></clipPath><clipPath id="95964b64d3"><path d="M 147.296875 166.4375 L 168.363281 166.4375 L 168.363281 187.5 L 147.296875 187.5 Z M 147.296875 166.4375 " clip-rule="nonzero"/></clipPath><clipPath id="feb74e13d7"><path d="M 157.828125 166.4375 C 152.011719 166.4375 147.296875 171.152344 147.296875 176.96875 C 147.296875 182.785156 152.011719 187.5 157.828125 187.5 C 163.644531 187.5 168.363281 182.785156 168.363281 176.96875 C 168.363281 171.152344 163.644531 166.4375 157.828125 166.4375 " clip-rule="nonzero"/></clipPath></defs><g clip-path="url(#e2d3787c09)"><path fill="#00a1ff" d="M 145.582031 108.933594 L 159.605469 122.9375 L 129.878906 152.726562 L 101.835938 124.71875 L 58.503906 167.992188 L 72.527344 182 L 101.835938 152.726562 L 129.878906 180.738281 L 173.628906 136.945312 L 187.652344 150.949219 L 187.652344 108.933594 Z M 145.582031 108.933594 " fill-opacity="1" fill-rule="nonzero"/></g><g clip-path="url(#fabb61ae4d)"><g clip-path="url(#79676f8a63)"><path fill="#ffbd59" d="M 118.800781 118.433594 L 139.863281 118.433594 L 139.863281 139.496094 L 118.800781 139.496094 Z M 118.800781 118.433594 " fill-opacity="1" fill-rule="nonzero"/></g></g><g clip-path="url(#90d7128b88)"><g clip-path="url(#295c5ba760)"><path fill="#7ed957" d="M 90.304688 166.4375 L 111.367188 166.4375 L 111.367188 187.5 L 90.304688 187.5 Z M 90.304688 166.4375 " fill-opacity="1" fill-rule="nonzero"/></g></g><g clip-path="url(#95964b64d3)"><g clip-path="url(#feb74e13d7)"><path fill="#ff5757" d="M 147.296875 166.4375 L 168.363281 166.4375 L 168.363281 187.5 L 147.296875 187.5 Z M 147.296875 166.4375 " fill-opacity="1" fill-rule="nonzero"/></g></g><g fill="#ffffff" fill-opacity="1"><g transform="translate(158.114825, 182.375832)"><g><path d="M 23.234375 0 L 21.5 -5.265625 L 10.265625 -5.265625 L 8.515625 0 L 0.40625 0 L 11.28125 -31.40625 L 20.5625 -31.40625 L 31.40625 0 Z M 12.171875 -11.0625 L 19.578125 -11.0625 L 15.875 -22.21875 Z M 12.171875 -11.0625 "/></g></g></g><g fill="#ffffff" fill-opacity="1"><g transform="translate(192.948785, 182.375832)"><g><path d="M 10.96875 -12.171875 L 10.96875 0 L 3.34375 0 L 3.34375 -31.3125 L 15.703125 -31.3125 C 19.328125 -31.3125 22.148438 -30.375 24.171875 -28.5 C 26.203125 -26.625 27.21875 -24.363281 27.21875 -21.71875 C 27.21875 -19.90625 26.664062 -18.132812 25.5625 -16.40625 C 24.457031 -14.6875 22.65625 -13.472656 20.15625 -12.765625 L 27.84375 0 L 18.921875 0 L 11.859375 -12.171875 Z M 10.96875 -25.515625 L 10.96875 -17.984375 L 15.703125 -17.984375 C 16.859375 -17.984375 17.769531 -18.320312 18.4375 -19 C 19.113281 -19.6875 19.453125 -20.585938 19.453125 -21.703125 C 19.453125 -22.816406 19.109375 -23.726562 18.421875 -24.4375 C 17.734375 -25.15625 16.828125 -25.515625 15.703125 -25.515625 Z M 10.96875 -25.515625 "/></g></g></g><g fill="#ffffff" fill-opacity="1"><g transform="translate(225.775679, 182.375832)"><g><path d="M 1.203125 -25.515625 L 1.203125 -31.3125 L 25.921875 -31.3125 L 25.921875 -25.515625 L 17.359375 -25.515625 L 17.359375 0 L 9.71875 0 L 9.71875 -25.515625 Z M 1.203125 -25.515625 "/></g></g></g><g fill="#ffffff" fill-opacity="1"><g transform="translate(255.926476, 182.375832)"><g><path d="M 3.34375 0 L 3.34375 -31.3125 L 10.96875 -31.3125 L 10.96875 0 Z M 3.34375 0 "/></g></g></g><g fill="#ffffff" fill-opacity="1"><g transform="translate(273.276623, 182.375832)"><g><path d="M 23.734375 -31.40625 L 31.359375 -31.40625 L 31.359375 0 L 23.734375 0 L 10.96875 -19.765625 L 10.96875 0 L 3.34375 0 L 3.34375 -31.40625 L 10.96875 -31.40625 L 23.734375 -11.640625 Z M 23.734375 -31.40625 "/></g></g></g><g fill="#ffffff" fill-opacity="1"><g transform="translate(311.009679, 182.375832)"><g><path d="M 23.234375 0 L 21.5 -5.265625 L 10.265625 -5.265625 L 8.515625 0 L 0.40625 0 L 11.28125 -31.40625 L 20.5625 -31.40625 L 31.40625 0 Z M 12.171875 -11.0625 L 19.578125 -11.0625 L 15.875 -22.21875 Z M 12.171875 -11.0625 "/></g></g></g></svg>