<svg xmlns="http://www.w3.org/2000/svg" xmlns:xlink="http://www.w3.org/1999/xlink" width="500" zoomAndPan="magnify" viewBox="0 0 375 374.999991" height="500" preserveAspectRatio="xMidYMid meet" version="1.0"><defs><g/><clipPath id="931e1fc9c4"><path d="M 58.363281 108.933594 L 187.792969 108.933594 L 187.792969 182 L 58.363281 182 Z M 58.363281 108.933594 " clip-rule="nonzero"/></clipPath><clipPath id="b62cc3ecff"><path d="M 118.800781 118.433594 L 139.863281 118.433594 L 139.863281 139.496094 L 118.800781 139.496094 Z M 118.800781 118.433594 " clip-rule="nonzero"/></clipPath><clipPath id="8e409140f2"><path d="M 129.332031 118.433594 C 123.515625 118.433594 118.800781 123.148438 118.800781 128.964844 C 118.800781 134.78125 123.515625 139.496094 129.332031 139.496094 C 135.148438 139.496094 139.863281 134.78125 139.863281 128.964844 C 139.863281 123.148438 135.148438 118.433594 129.332031 118.433594 " clip-rule="nonzero"/></clipPath><clipPath id="2f5e09d95e"><path d="M 90.304688 166.4375 L 111.367188 166.4375 L 111.367188 187.5 L 90.304688 187.5 Z M 90.304688 166.4375 " clip-rule="nonzero"/></clipPath><clipPath id="c8d72e1eea"><path d="M 100.835938 166.4375 C 95.019531 166.4375 90.304688 171.152344 90.304688 176.96875 C 90.304688 182.785156 95.019531 187.5 100.835938 187.5 C 106.652344 187.5 111.367188 182.785156 111.367188 176.96875 C 111.367188 171.152344 106.652344 166.4375 100.835938 166.4375 " clip-rule="nonzero"/></clipPath><clipPath id="74d2fe9d78"><path d="M 147.296875 166.4375 L 168.363281 166.4375 L 168.363281 187.5 L 147.296875 187.5 Z M 147.296875 166.4375 " clip-rule="nonzero"/></clipPath><clipPath id="9aad8597f3"><path d="M 157.828125 166.4375 C 152.011719 166.4375 147.296875 171.152344 147.296875 176.96875 C 147.296875 182.785156 152.011719 187.5 157.828125 187.5 C 163.644531 187.5 168.363281 182.785156 168.363281 176.96875 C 168.363281 171.152344 163.644531 166.4375 157.828125 166.4375 " clip-rule="nonzero"/></clipPath></defs><g clip-path="url(#931e1fc9c4)"><path fill="#00a1ff" d="M 145.582031 108.933594 L 159.605469 122.9375 L 129.878906 152.726562 L 101.835938 124.71875 L 58.503906 167.992188 L 72.527344 182 L 101.835938 152.726562 L 129.878906 180.738281 L 173.628906 136.945312 L 187.652344 150.949219 L 187.652344 108.933594 Z M 145.582031 108.933594 " fill-opacity="1" fill-rule="nonzero"/></g><g clip-path="url(#b62cc3ecff)"><g clip-path="url(#8e409140f2)"><path fill="#ffbd59" d="M 118.800781 118.433594 L 139.863281 118.433594 L 139.863281 139.496094 L 118.800781 139.496094 Z M 118.800781 118.433594 " fill-opacity="1" fill-rule="nonzero"/></g></g><g clip-path="url(#2f5e09d95e)"><g clip-path="url(#c8d72e1eea)"><path fill="#7ed957" d="M 90.304688 166.4375 L 111.367188 166.4375 L 111.367188 187.5 L 90.304688 187.5 Z M 90.304688 166.4375 " fill-opacity="1" fill-rule="nonzero"/></g></g><g clip-path="url(#74d2fe9d78)"><g clip-path="url(#9aad8597f3)"><path fill="#ff5757" d="M 147.296875 166.4375 L 168.363281 166.4375 L 168.363281 187.5 L 147.296875 187.5 Z M 147.296875 166.4375 " fill-opacity="1" fill-rule="nonzero"/></g></g><g fill="#545454" fill-opacity="1"><g transform="translate(157.330218, 181.982038)"><g><path d="M 24.796875 0 L 22.953125 -5.625 L 10.953125 -5.625 L 9.09375 0 L 0.421875 0 L 12.046875 -33.515625 L 21.953125 -33.515625 L 33.515625 0 Z M 13 -11.8125 L 20.90625 -11.8125 L 16.953125 -23.703125 Z M 13 -11.8125 "/></g></g></g><g fill="#545454" fill-opacity="1"><g transform="translate(192.031755, 181.982038)"><g><path d="M 11.71875 -13 L 11.71875 0 L 3.578125 0 L 3.578125 -33.421875 L 16.765625 -33.421875 C 20.628906 -33.421875 23.640625 -32.421875 25.796875 -30.421875 C 27.960938 -28.421875 29.046875 -26.007812 29.046875 -23.1875 C 29.046875 -21.25 28.457031 -19.359375 27.28125 -17.515625 C 26.101562 -15.679688 24.179688 -14.378906 21.515625 -13.609375 L 29.703125 0 L 20.1875 0 L 12.671875 -13 Z M 11.71875 -27.234375 L 11.71875 -19.1875 L 16.765625 -19.1875 C 17.992188 -19.1875 18.960938 -19.550781 19.671875 -20.28125 C 20.390625 -21.007812 20.75 -21.96875 20.75 -23.15625 C 20.75 -24.351562 20.382812 -25.332031 19.65625 -26.09375 C 18.925781 -26.851562 17.960938 -27.234375 16.765625 -27.234375 Z M 11.71875 -27.234375 "/></g></g></g><g fill="#545454" fill-opacity="1"><g transform="translate(224.591233, 181.982038)"><g><path d="M 1.28125 -27.234375 L 1.28125 -33.421875 L 27.65625 -33.421875 L 27.65625 -27.234375 L 18.515625 -27.234375 L 18.515625 0 L 10.375 0 L 10.375 -27.234375 Z M 1.28125 -27.234375 "/></g></g></g><g fill="#545454" fill-opacity="1"><g transform="translate(254.294617, 181.982038)"><g><path d="M 3.578125 0 L 3.578125 -33.421875 L 11.71875 -33.421875 L 11.71875 0 Z M 3.578125 0 "/></g></g></g><g fill="#545454" fill-opacity="1"><g transform="translate(270.33636, 181.982038)"><g><path d="M 25.328125 -33.515625 L 33.46875 -33.515625 L 33.46875 0 L 25.328125 0 L 11.71875 -21.09375 L 11.71875 0 L 3.578125 0 L 3.578125 -33.515625 L 11.71875 -33.515625 L 25.328125 -12.421875 Z M 25.328125 -33.515625 "/></g></g></g><g fill="#545454" fill-opacity="1"><g transform="translate(308.132004, 181.982038)"><g><path d="M 24.796875 0 L 22.953125 -5.625 L 10.953125 -5.625 L 9.09375 0 L 0.421875 0 L 12.046875 -33.515625 L 21.953125 -33.515625 L 33.515625 0 Z M 13 -11.8125 L 20.90625 -11.8125 L 16.953125 -23.703125 Z M 13 -11.8125 "/></g></g></g></svg>