<svg xmlns="http://www.w3.org/2000/svg" xmlns:xlink="http://www.w3.org/1999/xlink" viewBox="0 0 4680 3120"><defs><style>.cls-1{fill:none;}.cls-2,.cls-43{isolation:isolate;}.cls-3,.cls-9{fill:#fff;}.cls-3{opacity:0;}.cls-4{fill:#0aa798;}.cls-5{fill:#2d7682;}.cls-6{fill:#6ac6b8;}.cls-7{fill:#0b99d1;}.cls-8{fill:#c60456;}.cls-10{fill:#ff2b9a;}.cls-11{fill:#c24d95;}.cls-12{fill:#9d2584;}.cls-13{fill:#fc0;}.cls-14{fill:#1d2289;}.cls-15{fill:#3641ab;}.cls-16{fill:#2d3393;}.cls-17{opacity:0.52;}.cls-18{fill:#1d2f5d;}.cls-19{fill:#f9689d;}.cls-20{fill:#fafafa;}.cls-21{clip-path:url(#clip-path);}.cls-22{fill:#ffaf45;}.cls-23{clip-path:url(#clip-path-2);}.cls-24{clip-path:url(#clip-path-3);}.cls-25{fill:#6abefa;}.cls-26{fill:#2b4273;}.cls-27{fill:#5863d2;}.cls-28{fill:#4959ce;}.cls-29{fill:#76d7fa;}.cls-30{opacity:0.27;}.cls-31{fill:#f1f2f2;}.cls-32,.cls-48{fill:#3387d2;}.cls-33{fill:#006dac;}.cls-34{fill:#140a7f;}.cls-35{fill:#d1e7ff;}.cls-36{opacity:0.5;mix-blend-mode:soft-light;}.cls-37{fill:#33a2e6;}.cls-38{opacity:0.3;}.cls-39{fill:#231f20;}.cls-40{fill:#06486d;}.cls-41{fill:#3a87c4;}.cls-42{fill:#4e5e64;}.cls-43{opacity:0.2;}.cls-44{fill:#1a2e35;}.cls-45{opacity:0.4;}.cls-46{fill:#140a4b;}.cls-47{fill:#33acff;}.cls-48{fill-rule:evenodd;}.cls-49{fill:#4c1a01;}.cls-50{fill:#5c5c5c;}.cls-51{fill:#303030;}.cls-52{fill:#6255d9;}.cls-53{fill:#f26122;}.cls-54{fill:#fbc5a9;}.cls-55{fill:#f7a18a;}.cls-56{fill:#6c6c6c;}.cls-57{fill:#8e2822;}.cls-58{fill:#4632b4;}.cls-59{fill:#d64822;}.cls-60{fill:#333;}.cls-61{fill:#2b2b2b;}.cls-62{fill:#6b2203;}.cls-63{fill:#242424;}</style><clipPath id="clip-path"><circle class="cls-1" cx="674.63" cy="1729.02" r="49.52" transform="translate(-610.32 389.78) rotate(-22.5)"/></clipPath><clipPath id="clip-path-2"><circle class="cls-1" cx="1162.32" cy="1729.02" r="49.52" transform="translate(-573.19 576.42) rotate(-22.5)"/></clipPath><clipPath id="clip-path-3"><circle class="cls-1" cx="1636.63" cy="1729.02" r="49.52" transform="translate(-537.09 757.93) rotate(-22.5)"/></clipPath></defs><title>06</title><g class="cls-2"><g id="_06" data-name="06"><rect id="_06-2" data-name="06" class="cls-3" width="4680" height="3120"/><path class="cls-4" d="M3462.9,2116.82c-70.87,184.56-64.14,438.2,34,479.25,103.24,43.17,288.51-156.82,379.82-321.41,110.51-199.22,166.29-496.11,69.6-554C3844.49,1659.66,3562.59,1857.21,3462.9,2116.82Z"/><path class="cls-5" d="M3494.84,2594.33a2700.54,2700.54,0,0,1,195.93-479.75c25.75-48.88,52.74-96.75,80.22-142.25,12.75-21.31,26.41-43.23,41.8-67,40.69-63.18,84.64-125.55,130.63-185.4l-4.92-3.79c-46.09,60-90.14,122.51-130.92,185.82-15.43,23.87-29.13,45.85-41.91,67.22-27.53,45.58-54.59,93.55-80.39,142.56a2705,2705,0,0,0-196.38,480.83Z"/><polygon class="cls-5" points="3810.38 1906.67 3998.42 1897.39 3998.11 1891.18 3810.06 1900.46 3810.38 1906.67"/><polygon class="cls-5" points="3768.45 1973.98 3988.11 1956.49 3987.63 1950.31 3767.96 1967.79 3768.45 1973.98"/><polygon class="cls-5" points="3598.07 1909.85 3701.16 2067.39 3706.36 2063.97 3603.27 1906.43 3598.07 1909.85"/><polygon class="cls-5" points="3550.78 1952.31 3676.94 2132.98 3682.03 2129.43 3555.87 1948.76 3550.78 1952.31"/><path class="cls-5" d="M3809.67,2314.63c-110.16,60-211.23,185.39-180.67,245.6,32.13,63.33,203.93,42.88,315.75.89,135.35-50.83,284.42-171.36,261.51-239.12C4182.12,2250.64,3964.63,2230.17,3809.67,2314.63Z"/><path class="cls-4" d="M3629.33,2559.49a1711.83,1711.83,0,0,1,291.8-151.15c32.58-13.05,65.3-25.07,97.23-35.74,14.65-5,30.27-9.95,47.74-15.2,45.56-13.76,92.44-25.83,139.31-35.86l-1.3-6.06c-47,10.05-94.07,22.15-139.8,36-17.53,5.27-33.21,10.27-47.93,15.26-32,10.7-64.86,22.76-97.55,35.84A1717.55,1717.55,0,0,0,3626,2554.28Z"/><rect class="cls-4" x="4109.49" y="2331.11" width="6.21" height="119.49" transform="translate(-289.02 4195.14) rotate(-52.46)"/><polygon class="cls-4" points="4128.78 2454.09 4132.42 2449.07 4019.07 2367.16 4015.43 2372.18 4128.78 2454.09"/><polygon class="cls-4" points="3905.18 2402.32 3912.05 2404.55 3950.54 2269.58 3943.67 2267.36 3905.18 2402.32"/><polygon class="cls-4" points="3861.2 2425.42 3867.65 2427.3 3905.41 2278.71 3898.96 2276.83 3861.2 2425.42"/><path class="cls-6" d="M3429.1,2287.32c45.47,123,60.68,294.42,19.07,324.42-43.77,31.54-142.31-99.21-195.63-208.24-64.53-132-111.24-331.17-71.5-372.51C3222.89,1987.45,3365.13,2114.32,3429.1,2287.32Z"/><path class="cls-4" d="M3447.31,2610.76l5.92-1.84a2533.41,2533.41,0,0,0-123.81-320.19c-15.31-32.6-31.06-64.38-46.8-94.43-7.29-14-15.1-28.57-23.88-44.42-23.06-41.8-47.58-83-72.85-122.48l-5.23,3.36c25.2,39.34,49.65,80.44,72.65,122.12,8.75,15.8,16.53,30.29,23.81,44.29,15.71,30,31.41,61.68,46.67,94.2A2525.38,2525.38,0,0,1,3447.31,2610.76Z"/><rect class="cls-4" x="3209.89" y="2107.37" width="6.2" height="86.07" transform="translate(991.75 5314.84) rotate(-88.73)"/><polygon class="cls-4" points="3178.72 2192.24 3279.74 2198.94 3280.15 2192.76 3179.14 2186.03 3178.72 2192.24"/><polygon class="cls-4" points="3376.83 2175.48 3328.3 2286.34 3321.74 2282.89 3370.28 2172.02 3376.83 2175.48"/><polygon class="cls-4" points="3396.95 2214.28 3350.7 2335 3345.06 2332.3 3391.29 2211.57 3396.95 2214.28"/><path class="cls-4" d="M3637.62,2490.83a434,434,0,0,1,232.48-199.7l-2.14-5.84a440.44,440.44,0,0,0-235.78,202.53Z"/><rect class="cls-7" x="521.52" y="2575.63" width="3616.9" height="85.3"/><path class="cls-8" d="M3970.12,1236.56c-.27,138.28-112.59,250.16-250.88,249.89s-250.17-112.58-249.9-250.86,112.58-250.18,250.87-249.91S3970.39,1098.26,3970.12,1236.56Z"/><path class="cls-9" d="M3931.94,1236.48c-.22,117.19-95.42,212-212.62,211.79s-212-95.42-211.8-212.61,95.42-212,212.62-211.81S3932.17,1119.27,3931.94,1236.48Z"/><path class="cls-10" d="M3720.18,1002.52c-129-.25-233.74,104.12-234,233.1s104.1,233.74,233.08,234,233.76-104.11,234-233.09S3849.17,1002.77,3720.18,1002.52Zm-.83,428.33c-107.59-.2-194.62-87.59-194.41-195.16s87.58-194.63,195.17-194.42,194.63,87.59,194.42,195.18S3826.94,1431.06,3719.35,1430.85Z"/><rect class="cls-11" x="3693.95" y="1070.72" width="52.19" height="6.73" transform="translate(2638.74 4792.03) rotate(-89.89)"/><rect class="cls-11" x="3689.09" y="1390.43" width="60.67" height="6.73" transform="translate(2318.45 5110.53) rotate(-89.89)"/><rect class="cls-11" x="3556.76" y="1207.27" width="6.75" height="56.96" transform="translate(2317.49 4793.48) rotate(-89.89)"/><rect class="cls-11" x="3877.81" y="1209.75" width="6.75" height="53.24" transform="translate(2637.29 5115.15) rotate(-89.89)"/><rect class="cls-11" x="3568.79" y="1136.76" width="6.73" height="42.03" transform="translate(875.49 3770.95) rotate(-62.06)"/><polygon class="cls-11" points="3884.3 1327.18 3847.16 1307.48 3850.33 1301.52 3887.44 1321.22 3884.3 1327.18"/><polygon class="cls-11" points="3638.92 1114.37 3616.46 1078.84 3622.17 1075.24 3644.61 1110.78 3638.92 1114.37"/><polygon class="cls-11" points="3817.3 1396.88 3794.85 1361.34 3800.55 1357.74 3823 1393.28 3817.3 1396.88"/><rect class="cls-11" x="3614.09" y="1376.72" width="42.03" height="6.74" transform="translate(602.68 3813.82) rotate(-59.54)"/><polygon class="cls-11" points="3796.62 1111.85 3790.8 1108.44 3812.1 1072.21 3817.9 1075.61 3796.62 1111.85"/><polygon class="cls-11" points="3558.95 1333.69 3555.55 1327.86 3591.87 1306.69 3595.26 1312.52 3558.95 1333.69"/><polygon class="cls-11" points="3847.59 1165.42 3844.2 1159.61 3880.52 1138.44 3883.9 1144.26 3847.59 1165.42"/><path class="cls-12" d="M3604.25,1265.73l0-13.59,25.25-21.89a25,25,0,0,0,3.54-3.74,10.37,10.37,0,0,0,1.55-2.86,7.85,7.85,0,0,0,.41-2.39,4.59,4.59,0,0,0-1.69-3.8,8,8,0,0,0-5.08-1.37,12,12,0,0,0-5.88,1.53,10.93,10.93,0,0,0-4.39,4.54l-17.72-8.38a28.48,28.48,0,0,1,11.38-10.94q7.57-4.21,18.84-4.19a39.59,39.59,0,0,1,14.64,2.56,23.14,23.14,0,0,1,9.95,7.15,17.16,17.16,0,0,1,3.56,10.88,25,25,0,0,1-.85,6.38,20.37,20.37,0,0,1-3.45,6.69,49.42,49.42,0,0,1-7.69,7.82l-19,16.18-3.67-7.69,36.17.07,0,17.15Z"/><path class="cls-12" d="M3664.35,1254.6l0-14.06,29.67-40.26,24.12,0-28.58,40.27-11-3.12,54,.1,0,17.16Zm36.15,11.32,0-11.25.73-17.16,0-10,22.12,0-.07,38.45Z"/><path class="cls-12" d="M3731,1275.36,3764,1187.1l19.93,0-33,88.26Z"/><path class="cls-12" d="M3791.67,1266.1l26.42-57.71,6.25,9.3-33.07-.07,9.18-10,0,19.59-19.43,0,.06-26.72,59.68.11,0,13.6-23.31,52Z"/><rect class="cls-13" x="2312.23" y="662.4" width="357.5" height="215.59" rx="31.22" transform="translate(4981.95 1540.38) rotate(-180)"/><path class="cls-13" d="M2620.6,863.15l-37.75,75.16a9.88,9.88,0,0,1-17.77-.21l-35.17-74.52Z"/><circle class="cls-9" cx="2584.86" cy="769.66" r="17.17" transform="translate(884.6 2863.22) rotate(-67.5)"/><circle class="cls-9" cx="2493.22" cy="769.66" r="17.17" transform="translate(1171.33 3019.36) rotate(-76.72)"/><circle class="cls-9" cx="2401.59" cy="769.66" r="17.17" transform="translate(771.47 2693.9) rotate(-67.5)"/><path class="cls-14" d="M1553.11,2528.8c-67.78-15.16-117.46-95-117.46-186.55a256.56,256.56,0,0,1,3.4-41.47l7.11-44.46,31.18-194.8H1150.81l-31.28,194.8-13.11,81.62c-19.55,118.36,47.36,230.6,137.41,230.6H1576.5v-37.16A105.52,105.52,0,0,1,1553.11,2528.8Zm-304.42-331.27c5.76-54,42.94-97.63,83-97.63a52.18,52.18,0,0,1,15.6,2.35c31.42,9.71,51.5,48.68,46.48,95.28a131.59,131.59,0,0,1-20.9,58.79c-12.16,18.19-28.41,31.44-46.1,36.48a56.52,56.52,0,0,1-16,2.36c-23.66,0-43-15.25-53.72-38.84C1249.56,2240,1246.33,2219.62,1248.69,2197.53Z"/><path class="cls-15" d="M1135,2407c.64,4.76,1.48,9.43,2.5,14.06a174.85,174.85,0,0,0,14.42,41.6,147.86,147.86,0,0,0,16,25.41c19.65,25.09,46.24,40.74,76.1,40.74h411.9c-33.33,0-63.49-15.38-87.26-40.74a169.3,169.3,0,0,1-19.61-25.41,206.14,206.14,0,0,1-20.19-41.6c-1.62-4.58-3.13-9.3-4.48-14.06a232.71,232.71,0,0,1-7.35-36.25,252.75,252.75,0,0,1,1.45-72.55l6.71-41.87,6.2-38.81,13.12-82.08,11.81-73.91H1181.78l-25.1,156-6.24,38.81-14.62,91a190.27,190.27,0,0,0-2.43,23.46A196,196,0,0,0,1135,2407Zm153.63-150.67a105.62,105.62,0,0,1-9-40.07c0-.53,0-1.07,0-1.61a129.31,129.31,0,0,1,.72-17.12q.7-6.55,2-12.91a134.54,134.54,0,0,1,6-20.77c.43-1.14.88-2.28,1.35-3.39.51-1.28,1-2.53,1.62-3.78.83-1.86,1.71-3.69,2.62-5.48h0c.61-1.19,1.24-2.38,1.88-3.54.32-.59.64-1.17,1-1.74a116.24,116.24,0,0,1,9.77-14.5h0a104.35,104.35,0,0,1,8.72-9.69,87,87,0,0,1,6.74-6q2-1.58,4-3c.16-.11.32-.24.49-.35.86-.6,1.74-1.18,2.61-1.74a72.54,72.54,0,0,1,7.49-4.23c.93-.45,1.86-.88,2.8-1.29.68-.3,1.36-.58,2.05-.85q1.36-.54,2.76-1c1-.36,2.07-.69,3.11-1h0a56.45,56.45,0,0,1,16-2.35c40.08,0,67.88,43.69,62.08,97.62a135.63,135.63,0,0,1-3.66,20,127.69,127.69,0,0,1-17.27,38.81c-15.74,23.59-38.39,38.84-62.05,38.84a52.19,52.19,0,0,1-15.6-2.36C1310.24,2287.71,1296.82,2274.47,1288.63,2256.32Z"/><rect class="cls-16" x="1352.8" y="2528.8" width="402.19" height="39.74"/><g class="cls-17"><path class="cls-14" d="M1125.78,2217.51h153.86c0-.42,0-.84-.05-1.26s0-1.07,0-1.61a129.83,129.83,0,0,1,.74-17.15q.7-6.54,2-12.88a134.54,134.54,0,0,1,6-20.77c.43-1.14.88-2.28,1.35-3.39.51-1.28,1-2.53,1.62-3.78.83-1.86,1.7-3.68,2.62-5.48h0c.61-1.19,1.24-2.38,1.88-3.54.32-.59.64-1.17,1-1.74a115.16,115.16,0,0,1,9.77-14.5h0a103.08,103.08,0,0,1,8.72-9.69,87,87,0,0,1,6.74-6c1.3-1.05,2.63-2.06,4-3,.16-.11.32-.24.49-.35.86-.6,1.74-1.18,2.61-1.74a72.54,72.54,0,0,1,7.49-4.23c.93-.45,1.87-.88,2.8-1.29.68-.3,1.36-.58,2.05-.85q1.36-.54,2.76-1c1-.36,2.07-.69,3.11-1h0a56.45,56.45,0,0,1,16-2.35c40.08,0,67.88,43.69,62.08,97.62a135.63,135.63,0,0,1-3.66,20h109.71l13.11-82.08,11.81-73.9H1150.79Z"/></g><rect class="cls-14" x="471.39" y="1024" width="1615.47" height="1094.47" rx="97.87"/><path class="cls-15" d="M2127,1100.43v941.62a76.42,76.42,0,0,1-76.41,76.41H587.94a76.42,76.42,0,0,1-76.41-76.41V1100.43A76.39,76.39,0,0,1,587.94,1024H2050.59a76.36,76.36,0,0,1,75.11,62.44A73.86,73.86,0,0,1,2127,1100.43Z"/><rect class="cls-18" x="565.96" y="1076.43" width="1506.6" height="932.45" rx="73.83"/><rect class="cls-9" x="555.75" y="1100.81" width="1475.32" height="907.8" rx="73.83"/><path class="cls-19" d="M714.52,1900.55c-8.58,8.26-15.61,5.27-15.61-6.64v-38.42a21.73,21.73,0,0,0-21.67-21.67H606.15a21.73,21.73,0,0,1-21.67-21.66V1660.3a21.73,21.73,0,0,1,21.67-21.67h412.51a21.73,21.73,0,0,1,21.67,21.67v151.86a21.73,21.73,0,0,1-21.67,21.66H805.56c-11.91,0-28.69,6.76-37.27,15Z"/><circle class="cls-9" cx="675.7" cy="1730.38" r="56.89" transform="translate(-1025.66 984.61) rotate(-45)"/><path class="cls-9" d="M996,1689.57H780.15a9.37,9.37,0,0,1-9.34-9.34h0a9.36,9.36,0,0,1,9.34-9.34H996a9.36,9.36,0,0,1,9.34,9.34h0A9.37,9.37,0,0,1,996,1689.57Z"/><path class="cls-9" d="M996,1723.81H780.15a9.37,9.37,0,0,1-9.34-9.34h0a9.36,9.36,0,0,1,9.34-9.34H996a9.36,9.36,0,0,1,9.34,9.34h0A9.37,9.37,0,0,1,996,1723.81Z"/><path class="cls-9" d="M996,1758H780.15a9.36,9.36,0,0,1-9.34-9.33h0a9.36,9.36,0,0,1,9.34-9.34H996a9.36,9.36,0,0,1,9.34,9.34h0A9.36,9.36,0,0,1,996,1758Z"/><rect class="cls-9" x="770.81" y="1773.61" width="124.76" height="18.68" rx="6.35"/><circle class="cls-20" cx="674.63" cy="1729.02" r="59.45" transform="translate(-1097.87 2279.38) rotate(-85.93)"/><g class="cls-21"><path class="cls-22" d="M709.3,1770a29.91,29.91,0,0,0-29.91-29.91h-8.55A29.91,29.91,0,0,0,640.93,1770v8.55H709.3Z"/><circle class="cls-22" cx="675.11" cy="1717.56" r="17.09"/></g><path class="cls-19" d="M1202.22,1900.55c-8.59,8.26-15.61,5.27-15.61-6.64v-38.42a21.73,21.73,0,0,0-21.67-21.67h-71.1a21.73,21.73,0,0,1-21.66-21.66V1660.3a21.73,21.73,0,0,1,21.66-21.67h412.52A21.73,21.73,0,0,1,1528,1660.3v151.86a21.73,21.73,0,0,1-21.67,21.66h-213.1c-11.91,0-28.69,6.76-37.27,15Z"/><circle class="cls-9" cx="1163.4" cy="1730.38" r="56.89" transform="translate(-882.81 1329.46) rotate(-45)"/><path class="cls-9" d="M1483.66,1689.57H1267.85a9.37,9.37,0,0,1-9.34-9.34h0a9.36,9.36,0,0,1,9.34-9.34h215.81a9.37,9.37,0,0,1,9.34,9.34h0A9.38,9.38,0,0,1,1483.66,1689.57Z"/><path class="cls-9" d="M1483.66,1723.81H1267.85a9.37,9.37,0,0,1-9.34-9.34h0a9.36,9.36,0,0,1,9.34-9.34h215.81a9.37,9.37,0,0,1,9.34,9.34h0A9.38,9.38,0,0,1,1483.66,1723.81Z"/><path class="cls-9" d="M1483.66,1758H1267.85a9.36,9.36,0,0,1-9.34-9.33h0a9.36,9.36,0,0,1,9.34-9.34h215.81a9.37,9.37,0,0,1,9.34,9.34h0A9.37,9.37,0,0,1,1483.66,1758Z"/><rect class="cls-9" x="1258.51" y="1773.61" width="124.76" height="18.68" rx="6.35"/><circle class="cls-20" cx="1162.32" cy="1729.02" r="59.45" transform="translate(-644.75 2765.85) rotate(-85.93)"/><g class="cls-23"><path class="cls-22" d="M1197,1770a29.92,29.92,0,0,0-29.92-29.91h-8.54a29.91,29.91,0,0,0-29.91,29.91v8.55H1197Z"/><circle class="cls-22" cx="1162.81" cy="1717.56" r="17.09"/></g><path class="cls-19" d="M1676.52,1900.55c-8.58,8.26-15.61,5.27-15.61-6.64v-38.42a21.73,21.73,0,0,0-21.66-21.67h-71.1a21.73,21.73,0,0,1-21.67-21.66V1660.3a21.73,21.73,0,0,1,21.67-21.67h412.52a21.73,21.73,0,0,1,21.66,21.67v151.86a21.73,21.73,0,0,1-21.66,21.66h-213.1c-11.92,0-28.7,6.76-37.28,15Z"/><circle class="cls-9" cx="1637.7" cy="1730.38" r="56.89" transform="translate(-743.89 1664.85) rotate(-45)"/><path class="cls-9" d="M1958,1689.57H1742.15a9.38,9.38,0,0,1-9.34-9.34h0a9.37,9.37,0,0,1,9.34-9.34H1958a9.36,9.36,0,0,1,9.34,9.34h0A9.37,9.37,0,0,1,1958,1689.57Z"/><path class="cls-9" d="M1958,1723.81H1742.15a9.38,9.38,0,0,1-9.34-9.34h0a9.37,9.37,0,0,1,9.34-9.34H1958a9.36,9.36,0,0,1,9.34,9.34h0A9.37,9.37,0,0,1,1958,1723.81Z"/><path class="cls-9" d="M1958,1758H1742.15a9.37,9.37,0,0,1-9.34-9.33h0a9.37,9.37,0,0,1,9.34-9.34H1958a9.36,9.36,0,0,1,9.34,9.34h0A9.36,9.36,0,0,1,1958,1758Z"/><rect class="cls-9" x="1732.81" y="1773.61" width="124.76" height="18.68" rx="6.35"/><circle class="cls-20" cx="1636.63" cy="1729.02" r="59.45" transform="translate(-204.07 3238.96) rotate(-85.93)"/><g class="cls-24"><path class="cls-22" d="M1671.3,1770a29.91,29.91,0,0,0-29.91-29.91h-8.55a29.91,29.91,0,0,0-29.91,29.91v8.55h68.37Z"/><circle class="cls-22" cx="1637.12" cy="1717.56" r="17.09"/></g><path class="cls-25" d="M2031.06,1158.71v9.49H555.75v-9.49a57.63,57.63,0,0,1,57.63-57.63H1973.43A57.63,57.63,0,0,1,2031.06,1158.71Z"/><path class="cls-9" d="M646.34,1134.64a15.91,15.91,0,1,1-15.9-15.9A15.9,15.9,0,0,1,646.34,1134.64Z"/><path class="cls-9" d="M702.22,1134.64a15.91,15.91,0,1,1-15.9-15.9A15.9,15.9,0,0,1,702.22,1134.64Z"/><path class="cls-9" d="M758.1,1134.64a15.91,15.91,0,1,1-15.91-15.9A15.9,15.9,0,0,1,758.1,1134.64Z"/><ellipse class="cls-26" cx="1356.2" cy="2064.48" rx="33.54" ry="34.17"/><ellipse class="cls-27" cx="1352.36" cy="2064.48" rx="27.14" ry="27.65"/><path class="cls-28" d="M609.22,741.76l118.09,674.68c4.75,27.15,33.7,49.17,64.67,49.17H1878.22c31,0,52.21-22,47.46-49.17L1807.6,741.76c-4.76-27.16-33.71-49.17-64.68-49.17H656.68C625.72,692.59,604.47,714.6,609.22,741.76Z"/><path class="cls-29" d="M642.93,700.3l67.65,386.58L761,1375c2.68,15.29,13,29,27.09,38a70.21,70.21,0,0,0,37.58,11.19H1911.92c31,0,52.22-22,47.47-49.16L1841.3,700.3c-4.75-27.15-33.7-49.16-64.67-49.16H690.39C659.42,651.14,638.17,673.15,642.93,700.3Z"/><g class="cls-30"><path class="cls-9" d="M642.93,700.3l67.65,386.57,259-435.73H690.39C659.42,651.14,638.17,673.14,642.93,700.3Z"/></g><g class="cls-30"><path class="cls-9" d="M788.11,1413a70.1,70.1,0,0,0,37.58,11.2h520.89l321.22-773h-461Z"/></g><ellipse class="cls-10" cx="788.11" cy="574.72" rx="179.13" ry="110.57"/><path class="cls-10" d="M904.3,637.64c0,3.58,10.74,70.71,8.05,70.71S843.43,660.91,847,659.12,904.3,637.64,904.3,637.64Z"/><circle class="cls-9" cx="877.9" cy="574.77" r="19.67"/><circle class="cls-9" cx="789.91" cy="574.77" r="19.67"/><path class="cls-9" d="M682.24,574.77a19.67,19.67,0,1,0,19.67-19.67A19.67,19.67,0,0,0,682.24,574.77Z"/><path d="M1912,617.53a6.14,6.14,0,0,1,3.28-8l4.31-1.81a6.17,6.17,0,0,1,8,3.24l35.28,83.6a6.15,6.15,0,0,1-3.26,8l-4.31,1.83a6.19,6.19,0,0,1-8-3.26Z"/><path d="M1899.27,642.46a6.14,6.14,0,0,1,4-7.66l4.47-1.4a6.1,6.1,0,0,1,7.67,4l27.27,86.54a6.12,6.12,0,0,1-4,7.67l-4.44,1.41a6.16,6.16,0,0,1-7.69-4Z"/><path d="M1967.64,616.08a6.12,6.12,0,0,1,6.27-6l4.68.11a6.12,6.12,0,0,1,6,6.24l-2.17,90.73a6.12,6.12,0,0,1-6.26,6l-4.69-.11a6.11,6.11,0,0,1-6-6.26Z"/><path d="M1939.8,607a6.1,6.1,0,0,1,5.11-7l4.62-.74a6.11,6.11,0,0,1,7,5.08L1970.63,694a6.14,6.14,0,0,1-5.08,7l-4.63.72a6.14,6.14,0,0,1-7-5.09Z"/><path d="M1721.57,952.74a19.5,19.5,0,0,1,20.59,18.3L1743,986a19.47,19.47,0,0,1-18.3,20.58l-133.68,7.84a19.46,19.46,0,0,1-20.58-18.3l-.88-14.92a19.49,19.49,0,0,1,18.3-20.58Z"/><path d="M1924.12,726.38a16.47,16.47,0,0,1,22.81-4.56l10.45,7a16.44,16.44,0,0,1,4.55,22.8l-62.79,93.87a16.41,16.41,0,0,1-22.77,4.53l-10.48-7a16.45,16.45,0,0,1-4.53-22.81Z"/><path class="cls-31" d="M1445.37,938.29a96.34,96.34,0,1,1-3.06,136.19A96.34,96.34,0,0,1,1445.37,938.29Z"/><path class="cls-32" d="M1445.37,938.29a96.34,96.34,0,1,1-3.06,136.19A96.34,96.34,0,0,1,1445.37,938.29Z"/><path class="cls-33" d="M1422.27,1043.08A96.31,96.31,0,0,1,1607,992.77a96.31,96.31,0,1,0-184.77,50.31Z"/><path class="cls-32" d="M1913.72,684.75a50.82,50.82,0,1,1-1.61,71.86A50.82,50.82,0,0,1,1913.72,684.75Z"/><path class="cls-34" d="M1899.73,733.67a50.58,50.58,0,0,1,99.71-14.1,50.64,50.64,0,1,0-99.71,14.1Z"/><path class="cls-9" d="M1814.93,802.74a58.44,58.44,0,0,1,82.62,1.85l6.75,7.06a58.44,58.44,0,0,1-1.88,82.61l-130.23,124.49a58.41,58.41,0,0,1-82.61-1.85l-6.74-7a58.44,58.44,0,0,1,1.85-82.62Z"/><path class="cls-35" d="M1667.06,975.9a58.07,58.07,0,0,1,17-31.44L1814.27,820a58.44,58.44,0,0,1,82.63,1.86l6.74,7a58,58,0,0,1,15.75,34,58.2,58.2,0,0,0-15.09-51.19l-6.75-7.06a58.44,58.44,0,0,0-82.62-1.85L1684.69,927.23A58.34,58.34,0,0,0,1667.06,975.9Z"/><g class="cls-36"><path class="cls-9" d="M1474.62,1081.74c-6.32-16.47,9.89-38,36.21-48.09s52.77-4.91,59.08,11.57-9.89,38-36.21,48.1S1480.93,1098.22,1474.62,1081.74Z"/></g><path class="cls-37" d="M1930.2,755.06c-4.22-11,5-24.79,20.59-30.76s31.66-1.89,35.88,9.12-5,24.79-20.59,30.76S1934.42,766.08,1930.2,755.06Z"/><g class="cls-38"><path class="cls-39" d="M1831.71,855.87a19.77,19.77,0,1,0,28,.27A19.77,19.77,0,0,0,1831.71,855.87Z"/></g><path class="cls-40" d="M1834.39,856.4a19.77,19.77,0,1,0,28,.27A19.78,19.78,0,0,0,1834.39,856.4Z"/><path class="cls-41" d="M1838.16,860.24a14.39,14.39,0,1,0,20.34.2A14.4,14.4,0,0,0,1838.16,860.24Z"/><path class="cls-40" d="M1841.08,863.22a10.22,10.22,0,1,0,14.45.14A10.22,10.22,0,0,0,1841.08,863.22Z"/><path class="cls-40" d="M1740.41,926.65a35.41,35.41,0,1,0,50.07.49A35.41,35.41,0,0,0,1740.41,926.65Z"/><path class="cls-9" d="M1747.16,933.54a25.76,25.76,0,1,0,36.43.36A25.77,25.77,0,0,0,1747.16,933.54Z"/><path class="cls-40" d="M1752.39,938.87a18.3,18.3,0,1,0,25.87.25A18.3,18.3,0,0,0,1752.39,938.87Z"/><path class="cls-42" d="M1435.72,893.14c6.08,0,11,6,11,13.43a15,15,0,0,1-3.22,9.49,10.08,10.08,0,0,1-7.79,3.94H1236.37c-6.09,0-11-6-11-13.43a15,15,0,0,1,3.23-9.49,10.11,10.11,0,0,1,7.79-3.94c-6.09,0-11-6-11-13.42s4.93-13.43,11-13.43c-6.09,0-11-6-11-13.43a15.83,15.83,0,0,1,1.06-5.74c1.76-4.54,5.56-7.69,10-7.69h199.35c6.08,0,11,6,11,13.43s-4.93,13.43-11,13.43c6.08,0,11,6,11,13.43a16.13,16.13,0,0,1-.62,4.46C1444.6,889.41,1440.52,893.14,1435.72,893.14Z"/><rect class="cls-42" x="1243.13" y="819.21" width="185.83" height="102.76"/><g class="cls-43"><rect x="1243.13" y="854.73" width="185.83" height="5.1"/></g><g class="cls-43"><rect x="1243.13" y="877.16" width="185.83" height="5.1"/></g><g class="cls-43"><rect x="1243.13" y="899.54" width="185.83" height="5.1"/></g><g class="cls-43"><path d="M1446.73,879.72a16.13,16.13,0,0,1-.62,4.46c-71.71.78-161.77-20.72-219.7-37.06,1.76-4.54,5.56-7.69,10-7.69h199.35c6.08,0,11,6,11,13.43s-4.93,13.43-11,13.43C1441.8,866.29,1446.73,872.3,1446.73,879.72Z"/></g><path class="cls-9" d="M1166.21,526.45h325.11a71.06,71.06,0,0,1,71.06,71.06v182.1a71.06,71.06,0,0,1-71.06,71.06H1166.21a71.07,71.07,0,0,1-71.06-71.06V597.51A71.07,71.07,0,0,1,1166.21,526.45Z"/><path class="cls-35" d="M1095.14,597.5V779.62a71,71,0,0,0,71.09,71h127.85a71,71,0,0,1-71.09-71V597.5a71.05,71.05,0,0,1,71.09-71H1166.23A71,71,0,0,0,1095.14,597.5Z"/><rect class="cls-34" x="1254.48" y="557.84" width="280.27" height="261.45" rx="43.1"/><rect class="cls-44" x="1129.01" y="481.71" width="15.3" height="166.5"/><path class="cls-32" d="M1078.71,688.54a79.53,79.53,0,0,0,6.71,32.29,67.18,67.18,0,0,0,12.72,19.49c10.23,11,23.72,17.58,38.55,17.58,32,0,57.92-31,57.92-69.36s-26-69.36-57.92-69.36c-14.9,0-28.39,6.71-38.74,17.71a68.16,68.16,0,0,0-12.6,19.5A80.22,80.22,0,0,0,1078.71,688.54Z"/><g class="cls-45"><path d="M1085.42,720.83a67.18,67.18,0,0,0,12.72,19.49,40.53,40.53,0,0,0,18.48,4.41c26.2,0,47.49-25.18,47.49-56.19s-21.29-56.13-47.49-56.13a41.38,41.38,0,0,0-18.67,4.48,68.16,68.16,0,0,0-12.6,19.5c7.48-10.74,18.74-17.58,31.27-17.58,22.69,0,41.1,22.31,41.1,49.73s-18.41,49.8-41.1,49.8C1104.09,738.34,1092.9,731.56,1085.42,720.83Z"/></g><circle class="cls-32" cx="1136.66" cy="481.71" r="22.65"/><path class="cls-9" d="M1549.08,978.83l-12.81,195.86-.64,9.82-10.85,166.06c0,37.72-6.26,68.27-44,68.27H1201.72a68.27,68.27,0,0,1-68.34-68.27l-24.31-371.74a68.27,68.27,0,0,1,68.34-68.27H1480.8A68.26,68.26,0,0,1,1549.08,978.83Z"/><path class="cls-35" d="M1109.07,978.83l24.31,371.74a68.26,68.26,0,0,0,68.33,68.27h10.6a68.26,68.26,0,0,0,68.28-68.27V978.83a68.27,68.27,0,0,0-68.28-68.27h-34.9A68.28,68.28,0,0,0,1109.07,978.83Z"/><path class="cls-32" d="M1315.17,722a47.86,47.86,0,0,1-47.8-47.8v-7.26a47.85,47.85,0,0,1,47.8-47.8h163.77a47.86,47.86,0,0,1,47.81,47.8v7.26a47.87,47.87,0,0,1-47.81,47.8Z"/><path class="cls-46" d="M1315.17,629.29h163.77a37.61,37.61,0,0,1,37.61,37.61v7.26a37.6,37.6,0,0,1-37.6,37.6H1315.17a37.6,37.6,0,0,1-37.6-37.6v-7.25a37.6,37.6,0,0,1,37.6-37.6Z"/><path class="cls-47" d="M1350.67,670.52a23.4,23.4,0,1,1-23.39-23.4A23.39,23.39,0,0,1,1350.67,670.52Z"/><path class="cls-47" d="M1490.23,670.52a23.4,23.4,0,1,1-23.4-23.4A23.4,23.4,0,0,1,1490.23,670.52Z"/><g class="cls-36"><polygon class="cls-9" points="1361.07 711.75 1393.62 711.75 1417.27 629.29 1384.72 629.29 1361.07 711.75"/></g><g class="cls-36"><polygon class="cls-9" points="1400.02 711.75 1407.55 711.75 1431.2 629.29 1423.66 629.29 1400.02 711.75"/></g><path class="cls-48" d="M1369.37,744.73h0a5,5,0,0,1,5.06,5.06v34.83a5,5,0,0,1-5.06,5.06h0a5.21,5.21,0,0,1-5.06-5.06V749.79a5.22,5.22,0,0,1,5.06-5.06Z"/><path class="cls-48" d="M1391.4,744.73h0a5.22,5.22,0,0,1,5.06,5.06v34.83a5.21,5.21,0,0,1-5.06,5.06h0a5,5,0,0,1-5.06-5.06V749.79a5,5,0,0,1,5.06-5.06Z"/><path class="cls-48" d="M1413.13,744.73h0a5.22,5.22,0,0,1,5.06,5.06v34.83a5.21,5.21,0,0,1-5.06,5.06h0a5.21,5.21,0,0,1-5.06-5.06V749.79a5.22,5.22,0,0,1,5.06-5.06Z"/><path class="cls-48" d="M1434.86,744.73h0a5,5,0,0,1,5.06,5.06v34.83a5,5,0,0,1-5.06,5.06h0a5.21,5.21,0,0,1-5.06-5.06V749.79a5.22,5.22,0,0,1,5.06-5.06Z"/><path class="cls-33" d="M1527.33,1031.4H1329.87a7.9,7.9,0,0,0-6.76,12l32.08,53a37.81,37.81,0,0,0,32.35,18.23h82.12A37.84,37.84,0,0,0,1502,1096.4l32.08-53A7.91,7.91,0,0,0,1527.33,1031.4Z"/><path class="cls-32" d="M1387.54,1101.84a25.17,25.17,0,0,1-21.41-12.06l-25.2-41.64a2.6,2.6,0,0,1,2.23-4H1514a2.6,2.6,0,0,1,2.23,4l-25.2,41.64a25.16,25.16,0,0,1-21.41,12.06Z"/><path class="cls-33" d="M1535.92,1174.69l-.65,9.82-24.74,13.24A40.83,40.83,0,0,0,1491,1221l-9.63,29.08a49.31,49.31,0,0,1-93.62,0l-9.64-29.08a40.83,40.83,0,0,0-19.55-23.23l-78.31-41v-9.53l82.26,43.17a49.13,49.13,0,0,1,23.54,28l9.64,29.08a40.95,40.95,0,0,0,77.74,0l9.63-29.08a49.1,49.1,0,0,1,23.55-28Z"/><path d="M1230.05,1557.55a6.14,6.14,0,0,1,4.43,7.45l-1.15,4.52a6.15,6.15,0,0,1-7.41,4.46l-88-22.14a6.15,6.15,0,0,1-4.45-7.43l1.14-4.55a6.18,6.18,0,0,1,7.44-4.46Z"/><path d="M1217.79,1532.39a6.11,6.11,0,0,1,3.71,7.8l-1.56,4.41a6.1,6.1,0,0,1-7.81,3.72L1126.61,1518a6.12,6.12,0,0,1-3.72-7.81l1.55-4.4a6.15,6.15,0,0,1,7.83-3.73Z"/><path d="M1197.72,1602.87a6.11,6.11,0,0,1,1,8.59l-2.9,3.67a6.11,6.11,0,0,1-8.57,1l-71.16-56.34a6.13,6.13,0,0,1-1-8.59l2.91-3.67a6.12,6.12,0,0,1,8.59-1Z"/><path d="M1221.76,1586.12a6.11,6.11,0,0,1,2.49,8.28l-2.19,4.13a6.11,6.11,0,0,1-8.26,2.53l-80.08-42.68a6.12,6.12,0,0,1-2.54-8.27l2.21-4.13a6.14,6.14,0,0,1,8.29-2.54Z"/><path d="M1077,1203.73a19.49,19.49,0,0,1-27,5.43l-12.44-8.28a19.47,19.47,0,0,1-5.42-27l74.19-111.48a19.47,19.47,0,0,1,27-5.42l12.44,8.28a19.49,19.49,0,0,1,5.42,27Z"/><path d="M1135.82,1501.73a16.48,16.48,0,0,1-10.08,21l-11.9,4.12a16.43,16.43,0,0,1-20.94-10.09l-37.19-106.64a16.44,16.44,0,0,1,10.09-20.92l11.9-4.15a16.46,16.46,0,0,1,20.94,10.11Z"/><path class="cls-31" d="M1254.72,991.86a96.34,96.34,0,1,1-106.93-84.41A96.34,96.34,0,0,1,1254.72,991.86Z"/><path class="cls-32" d="M1254.72,991.86a96.34,96.34,0,1,1-106.93-84.41A96.34,96.34,0,0,1,1254.72,991.86Z"/><path class="cls-34" d="M1184.93,910.34a96.31,96.31,0,0,1-71,177.84,96.31,96.31,0,1,0,71-177.84Z"/><path class="cls-32" d="M1175.33,1518.47a50.82,50.82,0,1,1-56.42-44.53A50.82,50.82,0,0,1,1175.33,1518.47Z"/><path class="cls-34" d="M1144.67,1477.86a50.57,50.57,0,0,1-48.74,88.11,50.64,50.64,0,1,0,48.74-88.11Z"/><path class="cls-9" d="M1140.56,1368.57a58.45,58.45,0,0,1-51.2,64.87l-9.7,1.14a58.44,58.44,0,0,1-64.85-51.22l-21-178.93a58.42,58.42,0,0,1,51.19-64.86l9.7-1.14a58.45,58.45,0,0,1,64.86,51.2Z"/><path class="cls-35" d="M1091.26,1146.26a58.11,58.11,0,0,1,14.89,32.49l21,178.92a58.43,58.43,0,0,1-51.22,64.87l-9.67,1.14a58,58,0,0,1-36.61-7.85,58.24,58.24,0,0,0,50,18.75l9.7-1.14a58.45,58.45,0,0,0,51.2-64.87l-21-178.94A58.37,58.37,0,0,0,1091.26,1146.26Z"/><path d="M1176.35,1561.72a7.18,7.18,0,0,1,.72,10.16l-3.62,4.19a7.19,7.19,0,0,1-10.17.71l-37.45-32.49a7.2,7.2,0,0,1-.73-10.17l3.63-4.19a7.21,7.21,0,0,1,10.18-.71Z"/><path class="cls-37" d="M1122.55,928.87c17,4.88,24.4,30.78,16.62,57.87s-27.84,45.09-44.8,40.22-24.4-30.78-16.62-57.87S1105.59,924,1122.55,928.87Z"/><path class="cls-37" d="M1109.26,1489.32c11.33,3.26,16.78,18.91,12.17,35s-17.54,26.42-28.87,23.16-16.79-18.91-12.18-35S1097.92,1486.06,1109.26,1489.32Z"/><g class="cls-38"><path class="cls-39" d="M1096.9,1350.38a19.77,19.77,0,1,0-16.13,22.84A19.78,19.78,0,0,0,1096.9,1350.38Z"/></g><path class="cls-40" d="M1094.94,1352.28a19.77,19.77,0,1,0-16.13,22.84A19.78,19.78,0,0,0,1094.94,1352.28Z"/><path class="cls-41" d="M1089.63,1353.2a14.38,14.38,0,1,0-11.73,16.61A14.38,14.38,0,0,0,1089.63,1353.2Z"/><path class="cls-40" d="M1085.52,1353.9a10.22,10.22,0,1,0-8.33,11.8A10.21,10.21,0,0,0,1085.52,1353.9Z"/><path class="cls-40" d="M1090.63,1235a35.41,35.41,0,1,0-28.89,40.9A35.4,35.4,0,0,0,1090.63,1235Z"/><path class="cls-9" d="M1081.12,1236.66a25.76,25.76,0,1,0-21,29.76A25.77,25.77,0,0,0,1081.12,1236.66Z"/><path class="cls-40" d="M1073.77,1237.92a18.3,18.3,0,1,0-14.93,21.14A18.31,18.31,0,0,0,1073.77,1237.92Z"/><path class="cls-49" d="M3333.16,1412.8c-39.29-30.86-107.33-31.14-144.94-.62q-22.16-40.5-44.3-81a135.85,135.85,0,0,1-7.06,83.89,382.45,382.45,0,0,1-138-25.1c-7.22-2.78-14.71-6.1-18.76-11.77-5-7-3.4-15.76-1.65-23.67q8.77-39.55,17.57-79.1c-5.45,1.22-11,2.42-16.42,3.6a254.93,254.93,0,0,0-50.63,55.74c-13.56-8.94-27.14-17.92-40.46-27.19-5.29,1.65-11.35,1.91-17.18,1.94a382.6,382.6,0,0,1-138-25c1.58-28.35,12.36-56.08,30.93-79.54q-38.43,29.47-76.85,59c-20.94-41.18-83.58-64.63-133.46-50-17.61-34.34,21.31-69.58,61.51-84.63s88-23,114.14-52.26c24.55-27.52,18.84-87.71,17-102.71,0,0-37.88-59.35,6.7-109.09L2697,863.06l82.39-91.79c35.07-66.22,133.55-89.87,209-50.19l87.33,46,80.69,13.39c169.86,61.77,119.49,216.48,119.49,216.48,20.08,41,18.71,89.85-10.85,125.48,0,0-43.94,64.5-32.15,103.34,11,36,51.36,60,81.58,87.83S3364.66,1387.38,3333.16,1412.8Z"/><path class="cls-49" d="M3379.25,897.36A109.42,109.42,0,1,0,3257,992.25,109.42,109.42,0,0,0,3379.25,897.36Z"/><path class="cls-50" d="M3342.47,1278.69V1291A107.07,107.07,0,0,1,3342.47,1278.69Z"/><path class="cls-51" d="M3346.42,2167.53c1.8,21.81-167.07,53-377,69.83-210.09,17-381.76,12.81-383.36-9v-.4c0-21.81,168.27-52.62,377-69.63,206.08-16.41,375.35-12.81,382.95,8A2.84,2.84,0,0,1,3346.42,2167.53Z"/><path class="cls-52" d="M3401.08,2576.64c-258.11,11.2-516.65-10.34-763.15-5.14,20.41-88,43.82-177.87,65-268.91,12.4-53,24-106.45,34-160.27q240.41-29.71,472.4-62.42c37.21,56.82,70.83,116,99.24,176.47C3353.23,2351.41,3389.88,2479.2,3401.08,2576.64Z"/><path class="cls-53" d="M3346.42,2166.33h-.4c-7.6-20.81-176.87-24.41-382.95-8-208.69,17-377,47.82-377,69.63-6-98.84-12.21-197.08-18-294.93-1.8-28.61-3.6-57.22-5.2-85.83-1.8-28.41-3.6-56.82-5.21-85-5-79.63-9.6-158.66-14.4-237.49-3.8-63.83,37.82-120.85,99.44-137.86a1076.94,1076.94,0,0,1,129.85-27.41,1062.48,1062.48,0,0,1,378.76,12,1035.41,1035.41,0,0,1,110.85,30.21A119,119,0,0,1,3344,1514.66q1.2,286.62,2.2,572.64C3346.22,2113.71,3346.42,2139.92,3346.42,2166.33Z"/><rect class="cls-54" x="2856.02" y="1106.89" width="221.49" height="310.93"/><path class="cls-55" d="M3002.08,1250.25c-3.6,3.6-19,93.84-146.06,99.24V1240.76Z"/><path class="cls-54" d="M3151.34,1371.4c-63.22,186.28-225.09,282.72-266.71,385.16,0,0-115.25-204.48-112.05-397.16A1062.48,1062.48,0,0,1,3151.34,1371.4Z"/><path class="cls-56" d="M2453.32,2014.12c-68.13,103.2-179.06,150.1-247.77,104.74s-69.18-165.8-1.06-269,179.06-150.09,247.78-104.74S2521.45,1910.92,2453.32,2014.12Z"/><path class="cls-56" d="M2485.67,2021.07a166.17,166.17,0,0,1-27,79.43c-50.42,76.44-153.26,97.45-229.49,47a157.74,157.74,0,0,1-34.42-30.42,164.2,164.2,0,0,1-24.41-37.61c-.4-.8-.8-1.8-1.2-2.61-22.2-50-19.4-109.84,13-158.86a157.24,157.24,0,0,1,16.61-21.21,165.42,165.42,0,0,1,172.87-45,163.3,163.3,0,0,1,40,19.21,165.63,165.63,0,0,1,68.43,94v.2A164.17,164.17,0,0,1,2485.67,2021.07Z"/><path class="cls-53" d="M2182.09,1649.12c46.44,1.69,322,340.68,288,422s-84.22,144.67-240.9,76.44c-184.18-80.21-226.5-419.71-226.5-419.71S2116.66,1646.73,2182.09,1649.12Z"/><path class="cls-57" d="M2074.85,1648c-49,21.16-93.19,29.38-101,18.74l-.62-1.14c-5.24-12.34,31.5-40.2,82.36-62.26,50.7-22,96.16-30,101.51-17.48C2162.44,1598.07,2125.59,1625.78,2074.85,1648Z"/><path class="cls-54" d="M2137.11,1610.26l-10.17-57.39s-13.36-69-38.39-114.86-68.34-75.27-68.34-75.27-26.88-1.84-23.89,20.19c0,0,37.34,56,39.58,66.1s-44.43-8.26-68-23.41-85.12-50-91.1-54.62-26.13,0-23.89,19.28c0,0-12.7-4.94-21.66,4.7s2.52,26.16,2.52,26.16-14.84,10.87-11.48,28.33c0,0,9,11.26,27.45,29.17,0,0-11.77,8.26-4.48,25.47s73.92,70.92,104.16,116.36,43.31,68.62,55.82,71.84C2005.28,1692.31,2137.11,1765.41,2137.11,1610.26Z"/><path class="cls-55" d="M1982.5,1486.14a3.77,3.77,0,0,0,2.19-6.85l-129.56-92.09a3.77,3.77,0,1,0-4.37,6.15l129.56,92.09A3.77,3.77,0,0,0,1982.5,1486.14Z"/><path class="cls-55" d="M1966.45,1526.24a3.77,3.77,0,0,0,2.29-6.77L1836.1,1418.15a3.77,3.77,0,0,0-4.58,6l132.64,101.33A3.76,3.76,0,0,0,1966.45,1526.24Z"/><path class="cls-55" d="M1938.82,1552.87a3.77,3.77,0,0,0,2.34-6.73l-89-70.46a3.77,3.77,0,0,0-4.69,5.91l89,70.46A3.75,3.75,0,0,0,1938.82,1552.87Z"/><path class="cls-55" d="M2026.94,1620.8a3.77,3.77,0,0,0,3-6.06c-1.13-1.48-28.12-36.45-67.75-47a3.77,3.77,0,0,0-1.94,7.29c37.08,9.88,63.42,44,63.69,44.29A3.74,3.74,0,0,0,2026.94,1620.8Z"/><path class="cls-55" d="M2023.94,1552.87a3.55,3.55,0,0,0,.79-.09,3.77,3.77,0,0,0,2.91-4.47c-8.55-40.28,12-74.18,12.21-74.52a3.77,3.77,0,0,0-6.42-4c-.91,1.48-22.34,36.83-13.17,80.05A3.77,3.77,0,0,0,2023.94,1552.87Z"/><path class="cls-9" d="M2099.45,1704.44c-50.85,22.06-96.28,29.83-101.67,17.59l-24-55.34c7.86,10.63,52,2.41,101.05-18.74,50.74-22.21,87.6-49.91,82.21-62.15l23.9,55.2.62,1.15C2187.05,1654.53,2150,1682.34,2099.45,1704.44Z"/><path class="cls-53" d="M3565.89,2109.55c-86.68-129.92-233.06-322.47-438.3-501.88l-9.89-8.73,165.36-188.09c155.67,75.22,463.1,436,503.53,603.74Z"/><path class="cls-58" d="M3308.61,2256.37c-68-25-157.47-43.42-271.51-41.42-165.07,3-270.32,45.82-334.14,87.64,12.4-53,24-106.45,34-160.27q240.41-29.71,472.4-62.42C3246.58,2136.72,3280.2,2195.94,3308.61,2256.37Z"/><path class="cls-53" d="M2698.15,1812.39c-13.2,57.62-40,104.24-68.42,124.85-13,9.4-26.61,13.4-39.22,10.6-8.6-2-16.21-7.2-22.41-14.81-21-25.21-28.61-77.63-18.41-136.25l3.6-17.81c1.41-5.8,2.8-11.4,4.4-16.81,21.61-75.23,65.83-127.25,103-118.45C2701,1652.92,2717.56,1728.55,2698.15,1812.39Z"/><path class="cls-53" d="M2729.77,1547.07c-41.22,58.83-80,119.65-115.05,182.68-51.82,93.24-95.84,190.48-129,291.32-5.61,16.61-10.81,33.22-15.61,50l-46-19-44.42-18.4-209.09-86.24c9.21-17,18.61-34,28.22-50.62,25.21-43.82,52-86,80.63-127,25.41-36.62,52.22-72.23,80-107,69.23-86.23,163.07-194.08,235.5-251.9Z"/><path class="cls-59" d="M3346.42,2166.33h-.4c-7.6-20.81-176.87-24.41-382.95-8-208.69,17-377,47.82-377,69.63-6-98.84-12.21-197.08-18-294.93-21-25.21-28.61-77.63-18.41-136.25l3.6-17.81s-3.8,30,9.61,68.23c9.8,28.61,29.21,61.82,66.83,90,37.81,28.61,94,52.42,177.67,61.82,214.89,24.41,447-.2,538.82,88.24C3346.22,2113.71,3346.42,2139.92,3346.42,2166.33Z"/><path class="cls-59" d="M3628.54,1922.23c-12,67.63-232.7,0-232.7,0l-67-98.24c-.6-62.63,15.6-107.64,29.41-134.66,6.2,16.41,21.81,35,56.42,51.62C3503.49,1783.77,3640.75,1854.6,3628.54,1922.23Z"/><path class="cls-59" d="M2557.3,1756.56c0,27.41-10.21,69.23-11.81,111.45a1562.06,1562.06,0,0,0-59.82,153.06,166.17,166.17,0,0,1-27,79.43c-50.42,76.44-153.26,97.45-229.49,47a157.74,157.74,0,0,1-34.42-30.42c26.62,23.81,64.23,39.62,116.45,31,51.62-8.6,71-30.81,74.64-59.82,2-16.41-1-35-6.21-54.62-16.41-61.43-54-131.66-18.81-170.28,3.81-4.2,7.41-8,10.81-11.6,53.62-56.62,69-53.62,114.44-69.83,2.61-1,5.21-2,8-3,35.61-13.61,41-64.23,40.22-98.44C2545.09,1703.74,2557.3,1734.55,2557.3,1756.56Z"/><path class="cls-57" d="M2569.9,1970.17a4.73,4.73,0,0,1-3.72-1.79c-19.07-24.23-27.38-57.14-25.41-100.59.83-22,4-44.06,6.81-63.53,2.56-17.87,5-34.77,5-47.69,0-16.7-7.82-42.29-22.57-74-8.61-18.38-16.53-32.12-16.63-32.27a4.74,4.74,0,0,1,1.74-6.46,4.69,4.69,0,0,1,6.45,1.74c.33.57,8.19,14.19,17,33,15.55,33.45,23.43,59.7,23.43,78,0,13.6-2.47,30.81-5.09,49-2.76,19.23-5.89,41.05-6.72,62.58-1.85,41.12,5.79,72,23.42,94.34a4.71,4.71,0,0,1-3.72,7.64Z"/><path class="cls-57" d="M2910.19,2167.73a4.73,4.73,0,0,1-4.65-3.83c-.13-.74-13.94-74.12-24.79-207.6-9.89-121.76-.89-199.52-.81-200.3a4.89,4.89,0,0,1,5.26-4.13,4.75,4.75,0,0,1,4.13,5.26c-.09.76-9,77.68.85,198.42,10.8,132.88,24.52,205.86,24.65,206.58a4.72,4.72,0,0,1-3.76,5.52A4.5,4.5,0,0,1,2910.19,2167.73Z"/><path class="cls-57" d="M3346.22,2109a4.71,4.71,0,0,1-4.72-4.7c0-1.07-.77-109.56-15.19-242a363.83,363.83,0,0,1-2.21-38.33c-.62-63.42,15.93-109.41,29.91-136.81,10.57-20.68,19.89-31.35,20.27-31.8a4.73,4.73,0,0,1,7.1,6.25c-.1.11-9,10.32-19,29.85-13.51,26.46-29.48,70.92-28.89,132.48a356,356,0,0,0,2.17,37.36c14.45,132.93,15.23,241.87,15.23,243a4.69,4.69,0,0,1-4.7,4.73Z"/><path class="cls-53" d="M3792.41,2057.29c-8.2,96.64-129.25,129.85-306.33,102.84-109.44-16.61-202.28-56-254.3-102.64-28.62-25.41-45-53.23-45-80.44v-.4a51.85,51.85,0,0,1,.8-9.6c12.2-79.83,165.47-122.65,342.54-95.64,3.4.6,20.31,9.4,23.51,10C3724.08,1909.83,3799,1978.65,3792.41,2057.29Z"/><path class="cls-53" d="M3633.13,1985.42c-4.55,81.76-143.26,134.23-254.42,128s-197.57-77.47-193-159.22,90.11-146.37,201.26-140.19S3637.67,1903.66,3633.13,1985.42Z"/><path class="cls-59" d="M3792.41,2057.29c-8.2,96.64-129.25,129.85-306.33,102.84-109.44-16.61-202.28-56-254.3-102.64l.4-1,25.41-57.43s49.42-70.43,184.87,17.21a987.27,987.27,0,0,0,92.44,53.62C3653,2130.32,3776.6,2160.93,3792.41,2057.29Z"/><path class="cls-57" d="M3224.34,1955.36c-4.66,58-19.3,104.66-33.54,106.8h-1.42c-14.55-1.26-22.6-50.83-17.87-111,4.75-60,20.23-107.84,35-106.62C3221,1845.59,3228.86,1895.19,3224.34,1955.36Z"/><path class="cls-54" d="M3002,1836.45l168.31,58.24-11.56,128.8-9.56,3.46a132.54,132.54,0,0,1-23.12,6.07c-25.07,4.19-50.74-2.81-72.09-16.6l-56.75-36.63Z"/><polygon class="cls-54" points="3260.46 1895.88 3259.7 1943.12 3258.57 2026.46 3197.53 2025.52 3151.23 2024.95 3153.12 1894.37 3182.22 1894.75 3246.66 1895.69 3260.46 1895.88"/><path class="cls-55" d="M3246.66,1895.69l13,47.44-1.13,83.33-61-.94c5.67-71.43-5.67-110.93-15.31-130.77Z"/><path class="cls-9" d="M3291.22,1960.49c-4.72,60.19-20.43,107.87-34.95,106.81l-65.52-5.14c14.25-2.13,28.89-48.84,33.54-106.8,4.53-60.16-3.32-109.77-17.85-110.82l65.32,5.17h1.41C3287.9,1850.72,3295.78,1900.53,3291.22,1960.49Z"/><path class="cls-54" d="M2915.05,1885.24c12.93-36.59,42.74-63.65,91.32-47,18,8.27,31.29,14.26,48.66,23.66,26.75,15.14,4.95,55.36-22.35,41.13-16.39-9.13-32.56-18.66-48.42-28.74l2.95,1.34c-9.12-4.24-13.53-.72-21.63,6.61-9.54,10.86-22.75,25.73-32.73,36C2923.75,1928.61,2907,1908.12,2915.05,1885.24Z"/><path class="cls-54" d="M2905.44,1931.5c35.67-87.3,64.37-80.15,142.7-46.21,28.18,12.25,10.7,54.54-17.94,43.23-12-5.11-23.89-10.37-35.65-16-11.17-5.08-26.64-16.63-37.65-4.59-10.13,12.45-20.56,24.92-31.38,36.84a12.17,12.17,0,0,1-20.08-13.27Z"/><path class="cls-54" d="M2909.48,1953.23l39.15-52.37a16.43,16.43,0,0,1,17.11-6.1l3,.76,78.39,19.58a23.43,23.43,0,1,1-13.25,44.9l-76.46-26.1,20.1-5.34-50.67,41.32c-10.59,9.13-26-5.84-17.37-16.65Z"/><path class="cls-54" d="M2921.75,1967.43c24.67-38.4,65.24-34.49,112.87-18.48,26,8.94,13.35,47.83-12.95,39.76-16.07-4.66-32-13.18-48.14-17.51-14.65-3.24-29.69,5-40.81,13.78C2923.36,1992.46,2914.93,1978.05,2921.75,1967.43Z"/><path class="cls-55" d="M2919.26,1977a4.78,4.78,0,0,1-1.51-.25,4.71,4.71,0,0,1-3-6c.13-.41,14-41.21,54.56-40.17,24,.81,52,9.21,53.14,9.56a4.74,4.74,0,0,1-2.76,9.06c-.26-.09-28-8.4-50.71-9.19-.5,0-1,0-1.54,0-32,0-43.63,33.44-43.74,33.78A4.74,4.74,0,0,1,2919.26,1977Z"/><path class="cls-55" d="M2915.05,1947.41a4.56,4.56,0,0,1-1.39-.21,4.72,4.72,0,0,1-3.12-5.9c.61-2,14.93-46.71,53.84-46.71.57,0,1.15,0,1.76,0,24,.79,53.57,9.57,54.84,9.94a4.73,4.73,0,1,1-2.72,9.06c-.28-.09-29.72-8.79-52.44-9.57-32.65-1.41-46.12,39.63-46.26,40A4.69,4.69,0,0,1,2915.05,1947.41Z"/><path class="cls-55" d="M2917.45,1910a4.86,4.86,0,0,1-1.45-.22,4.73,4.73,0,0,1-3-6c.13-.41,14-42.25,52.8-42.25.6,0,1.23,0,1.83,0,24,.81,53.61,9.58,54.88,10a4.73,4.73,0,1,1-2.72,9.06c-.28-.1-29.74-8.79-52.48-9.59-32.38-1.26-44.84,34.18-45.33,35.69A4.7,4.7,0,0,1,2917.45,1910Z"/><path class="cls-57" d="M3667.63,1913.67a3.39,3.39,0,0,1-.45,0c-43.86-4.19-77.43-19.93-116.3-38.14-32.14-15.06-68.56-32.12-119.21-47.19-116-34.48-170.05,22.89-170.6,23.43a4.66,4.66,0,0,1-6.66.33,4.75,4.75,0,0,1-.34-6.67c2.32-2.58,58.35-62.42,180.28-26.15,51.35,15.28,88.11,32.49,120.53,47.7,39.65,18.57,71,33.26,113.2,37.29a4.72,4.72,0,0,1-.45,9.42Z"/><path class="cls-60" d="M3129.42,989.09l.54-7.6c-77.91-5.52-146.54-44.89-179.09-102.74-38.22-67.9-11.09-131.45-1.87-149.31l-6.76-3.49c-9.67,18.71-38.1,85.31,2,156.54C2978,942.54,3049,983.39,3129.42,989.09Z"/><path class="cls-54" d="M3060.25,733.77c-143.06-32.67-236.43,46.83-266.39,178,0,0-9.15,91.66-10.39,98.56-.16.9-62.25,144.35,54.52,281.83,6.59,7.77,16.79,10.65,27.07,12.89,214.12,46.67,235.08-165.68,235.08-165.68,4.09-10.4,99.26-110.87,101.82-122.06C3231.92,886.13,3203.32,766.45,3060.25,733.77Z"/><path class="cls-49" d="M2873.87,823.47l-3.51,92.29s176.42,25.38,251.06,51.33c0,0-51.43,131.94-14.05,147.53,0,0,148.9.2,126.61-188S3065.14,713.46,2963.16,725s-208.47,83-214,184.65l83.38,8.16S2848.84,851.75,2873.87,823.47Z"/><path class="cls-60" d="M2964.68,956.64c10.56-9.56,58.67,15.31,60.62,16.64,14.79,10.12,8.61,20.2,6.12,23.5-1.45,1.93-7-1.58-20.94-6.15-29.78-9.74-43.1-6.39-48.09-16.16C2959.45,968.7,2960.47,960.44,2964.68,956.64Z"/><path class="cls-60" d="M2862.14,948.44c-6-10.07-47.11-.85-49-.27-14.08,4.42-14.4,12.63-13.24,15.83.68,1.87,5.87.44,18,.19,25.79-.51,35.47,5.33,41.75-1.17C2863.36,959.19,2864.54,952.44,2862.14,948.44Z"/><path class="cls-61" d="M2871.24,1110.83c-.77-.32-19-8-21.47-24.6-1.92-12.7,5.95-26.48,23.4-41l5,6c-15,12.44-22.13,24.12-20.69,33.79,1.83,12.22,16.64,18.57,16.78,18.63Z"/><path class="cls-54" d="M3208.18,1136.65c-11.5,42.25-51.76,68.08-89.92,57.69s-59.78-53.06-48.27-95.31,51.76-68.08,89.92-57.69S3219.69,1094.41,3208.18,1136.65Z"/><path class="cls-61" d="M3145.62,1141.68c-4.49-10.94-24.94-15.51-32.44-16.35l-4.94-.55,1.74-4.66c6.76-18.17,16.54-29.73,29.06-34.38,15.85-5.89,30,1.75,30.58,2.08l-3.74,6.81c-.12-.06-11.74-6.24-24.23-1.57-9.28,3.48-16.88,12-22.62,25.34,9.19,1.77,28.31,7,33.78,20.33Z"/><path class="cls-55" d="M3101.6,1139.69c5.23-33.64,3.53-69.81,3.53-69.81a89.91,89.91,0,0,0-41.83,171.62C3096.2,1193.89,3101.6,1139.69,3101.6,1139.69Z"/><path class="cls-55" d="M2774.5,1039.57a281.42,281.42,0,0,0,4.46,146.59,89.82,89.82,0,0,0-4.46-146.59Z"/><path class="cls-61" d="M2995.51,1040.78c-2.32,9.37-8.64,15.86-14.1,14.5s-8-10-5.67-19.42,8.65-15.87,14.11-14.51S2997.85,1031.41,2995.51,1040.78Z"/><path class="cls-61" d="M2835.39,1021.28c-2.12,8.54-7.87,14.46-12.85,13.22s-7.29-9.17-5.16-17.7,7.87-14.46,12.85-13.22S2837.52,1012.74,2835.39,1021.28Z"/><path class="cls-62" d="M2991.34,742.86c-5.23-1.4,59.38-1.35,116.72,25.53,73.38,34.4,112.7,102.78,107.87,107.83-3.72,3.89-37.9-25.25-44.39-18.65-4.46,4.53,8.36,21.74,5,24.48-6,4.93-52.91-46.87-61.25-40.61-3.67,2.75,3.53,14.2-.09,17.19-6.82,5.62-37.37-30.78-83.81-58.16-42.46-25-77.31-30.22-76.46-33.57,1.57-6.17,117.53,19.87,118.84,14.61C3074.92,776.94,3041.85,756.36,2991.34,742.86Z"/><path class="cls-9" d="M2853.48,1154.26s34,8.21,66.15,7.34,19.59,46.62-28.88,50.13S2826.81,1153.52,2853.48,1154.26Z"/><path d="M2984,2538.94l-1.44-9.19h316.77a7.14,7.14,0,0,1,7.17,7.1h0c0,23.76-19.47,43-43.5,43H2948.5C2970.51,2579.86,2987.33,2560.44,2984,2538.94Z"/><path class="cls-63" d="M2948.51,2579.87H2121.19l-29.13-185.29L2020,1936c-3.38-21.52,13.44-40.93,35.45-40.93h778.15c28.3,0,52.38,20.39,56.72,48L2984,2538.93C2987.33,2560.44,2970.51,2579.87,2948.51,2579.87Z"/><path class="cls-51" d="M2489.38,2077.86c0,178.62-186.66,323.43-340.59,323.43a242.43,242.43,0,0,1-56.73-6.71L2020,1936c-3.38-21.52,13.44-40.93,35.45-40.93h385.22C2471.39,1947.09,2489.38,2010,2489.38,2077.86Z"/><path d="M2955.25,2538.94l-93.65-595.8a57.22,57.22,0,0,0-56.72-48.05h28.7a57.21,57.21,0,0,1,56.72,48.05l93.65,595.8c3.38,21.5-13.44,40.92-35.45,40.92h-28.7C2941.81,2579.86,2958.63,2560.44,2955.25,2538.94Z"/><ellipse class="cls-9" cx="2465.01" cy="2236.99" rx="44.25" ry="66.24" transform="translate(-719.5 1267.83) rotate(-25.3)"/><path class="cls-4" d="M794.21,2144.25c-10.81,94.86,23,212.63,73.88,219.95C921.58,2371.89,984,2256,1006.78,2168c27.57-106.51,17.73-252.06-34.48-267.44C917.31,1884.35,809.41,2010.81,794.21,2144.25Z"/><path class="cls-5" d="M866.91,2363.64a1304.53,1304.53,0,0,1,33.56-248c6.13-26,12.95-51.62,20.3-76.22,3.38-11.5,7.12-23.4,11.43-36.4,11.38-34.46,24.38-68.93,38.64-102.48l-2.75-1.17c-14.3,33.62-27.33,68.18-38.73,102.71-4.33,13-8.07,25-11.46,36.5-7.36,24.64-14.21,50.34-20.34,76.37a1306.52,1306.52,0,0,0-33.65,248.57Z"/><polygon class="cls-5" points="931.24 2003.96 1018.03 1976.88 1017.14 1974.01 930.34 2001.1 931.24 2003.96"/><polygon class="cls-5" points="919.78 2040.5 1020.37 2005.75 1019.39 2002.92 918.8 2037.67 919.78 2040.5"/><polygon class="cls-5" points="832.36 2031.13 899.62 2092.31 901.64 2090.09 834.38 2028.91 832.36 2031.13"/><polygon class="cls-5" points="815.39 2056.7 896.23 2125.91 898.18 2123.64 817.34 2054.43 815.39 2056.7"/><path class="cls-5" d="M980.27,2194.78c-44.24,41.4-76.33,112.23-54.76,136.69,22.68,25.72,100.53-4.63,147.73-37.79,57.13-40.14,112.24-114.53,93.33-143.43C1146.66,2119.81,1042.5,2136.55,980.27,2194.78Z"/><path class="cls-4" d="M925.57,2331.08a826.52,826.52,0,0,1,118.14-106c13.66-10.05,27.5-19.62,41.13-28.47,6.25-4.1,13-8.32,20.49-12.89,19.63-11.94,40.09-23.25,60.79-33.61l-1.34-2.68c-20.78,10.39-41.3,21.74-61,33.73-7.56,4.59-14.28,8.82-20.56,12.94-13.69,8.87-27.57,18.49-41.27,28.56a828.65,828.65,0,0,0-118.57,106.36Z"/><rect class="cls-4" x="1129.61" y="2164.92" width="3" height="57.7" transform="translate(-1330.33 2376.44) rotate(-66.97)"/><polygon class="cls-4" points="1146.33 2221.38 1147.42 2218.59 1084.52 2194.01 1083.43 2196.79 1146.33 2221.38"/><polygon class="cls-4" points="1035.52 2224.22 1039.01 2224.43 1040.67 2156.68 1037.19 2156.47 1035.52 2224.22"/><polygon class="cls-4" points="1017.76 2240.34 1021 2240.44 1020.68 2166.41 1017.44 2166.3 1017.76 2240.34"/><path class="cls-6" d="M799,2228.05c36.14,52,64,130.31,48.16,149.37-16.65,20-78.53-29.17-116.65-73.69-46.14-53.89-92.07-141.37-78.5-165.51C666.34,2112.8,748.19,2154.91,799,2228.05Z"/><path class="cls-4" d="M846.67,2377.07l2.55-1.58a1224.81,1224.81,0,0,0-96.62-134.72c-11.11-13.39-22.31-26.34-33.31-38.49-5.1-5.68-10.51-11.53-16.53-17.88-15.84-16.75-32.29-33.05-48.88-48.44l-2,2.2c16.54,15.34,32.94,31.6,48.74,48.31,6,6.32,11.39,12.16,16.49,17.82,11,12.12,22.15,25,33.21,38.39A1217.55,1217.55,0,0,1,846.67,2377.07Z"/><rect class="cls-4" x="660.64" y="2188.69" width="41.57" height="2.99" transform="translate(-483.33 214.18) rotate(-13.23)"/><polygon class="cls-4" points="670.47 2213.89 718.51 2204.8 717.95 2201.86 669.91 2210.94 670.47 2213.89"/><polygon class="cls-4" points="761.07 2182.09 751.78 2239.79 748.3 2238.97 757.58 2181.26 761.07 2182.09"/><polygon class="cls-4" points="775.16 2197.79 768.14 2259.83 765.18 2259.25 772.19 2197.21 775.16 2197.79"/><path class="cls-4" d="M921.14,2298a209.74,209.74,0,0,1,84.53-121.49L1004,2174a212.73,212.73,0,0,0-85.74,123.21Z"/><path class="cls-13" d="M903.5,2304.31H679.77a14.23,14.23,0,0,0-13.56,18.54l80.1,251.77a14.23,14.23,0,0,0,13.56,9.91H1008.8a14.23,14.23,0,0,0,13.56-9.91l80.1-251.77a14.23,14.23,0,0,0-13.56-18.54Z"/></g></g></svg>